<svg xmlns="http://www.w3.org/2000/svg" xmlns:xlink="http://www.w3.org/1999/xlink" width="128" height="128" viewBox="0 0 128 128"><defs><clipPath id="b"><rect width="128" height="128"/></clipPath></defs><g id="a" clip-path="url(#b)"><rect width="128" height="128" fill="#fff"/><g transform="translate(0 -9.67)"><g transform="translate(6.063 47.68)"><path d="M167.638,158.337l22.27,19.2V150.2Z" transform="translate(-131.941 -150.196)" fill="none"/><path d="M32.74,177.438l-8.4,8.431,39.208,42.078V205.574Z" transform="translate(-24.338 -170.652)" fill="none"/></g><rect width="56.716" height="76.548" transform="translate(43.864 55.82)" fill="none"/><path d="M122.451,91.4a17.386,17.386,0,0,0-21.112-27.278v-8.3A2.035,2.035,0,0,0,99.3,53.786h-26V15.705a2.035,2.035,0,0,0-4.07,0v38.08H53.579L63.9,49.564A2.035,2.035,0,1,0,62.355,45.8l-19.9,8.141-.005,0c-.053.022-.105.047-.156.073l-.031.015c-.041.022-.08.047-.119.071a2.022,2.022,0,0,0-.483.421l-.006.006c-.027.033-.051.067-.076.1s-.03.039-.043.059-.024.04-.037.06c-.022.036-.046.073-.067.111l0,0a2.006,2.006,0,0,0-.2.54v.005c0,.021-.006.042-.01.063-.008.046-.016.092-.021.139,0,.011,0,.022,0,.033-.005.058-.009.115-.009.173,0,0,0,0,0,.005V78.885L16.033,55.9,20.04,51.9a2.035,2.035,0,1,0-2.878-2.878L8.879,57.3l-2.77,2.77h0L.6,65.583a2.035,2.035,0,1,0,2.878,2.878L7.5,64.44l33.7,36.167v19.279h-.577a2.035,2.035,0,0,0,0,4.07H41.2v6.377h-.577a2.035,2.035,0,0,0,0,4.07h61.3a2.035,2.035,0,1,0,0-4.07h-.577v-6.377h.577a2.035,2.035,0,1,0,0-4.07h-.577v-7.37ZM110.158,65.794a13.315,13.315,0,0,1,9.415,22.73l-18.234,18.234V69.136A13.215,13.215,0,0,1,110.158,65.794Zm-19,58.162h6.106v6.377h-52v-6.377H83.021a2.035,2.035,0,1,0,0-4.07H45.266V99.805a2.034,2.034,0,0,0-.546-1.388L10.376,61.559l2.776-2.776L41.859,85a2.035,2.035,0,0,0,3.408-1.5V57.856h52v10.4h0v51.63H91.162a2.035,2.035,0,1,0,0,4.071Z" transform="translate(0 0)"/></g></g></svg>